# xmcd
#
# Track frame offsets:
#	150
#	17727
#	34781
#	55671
#	74279
#	90469
#	105394
#	122877
#	140260
#	159262
#	177760
#
# Disc length: 2563 seconds
#
# Revision: 1
# Processed by: cddbd v1.5.2PL0 Copyright (c) Steve Scherf et al.
# Submitted via: audiograbber 1.82.02
#
DISCID=820a010b
DTITLE=Josh Gracin - We Weren't Crazy
DYEAR=2008
DGENRE=Country
TTITLE0=Found
TTITLE1=We Weren't Crazy 
TTITLE2=Invisible
TTITLE3=Let Me Fall 
TTITLE4=I Don't Want To Live 
TTITLE5=Favorite State of Mind 
TTITLE6=Telluride
TTITLE7=I Keep Coming Back 
TTITLE8=Sweet September 
TTITLE9=Livin' It Up 
TTITLE10=Unbelievable (Ann Marie) 
EXTD=Dream`master On Mircs Phazenet
EXTT0=
EXTT1=
EXTT2=
EXTT3=
EXTT4=
EXTT5=
EXTT6=
EXTT7=
EXTT8=
EXTT9=
EXTT10=
PLAYORDER=
